<?xml version="1.0" encoding="UTF-8"?><svg id="a" xmlns="http://www.w3.org/2000/svg" viewBox="0 0 150 150"><defs><style>.b{fill:none;}.c{fill:#ab162c;fill-rule:evenodd;}</style></defs><path class="b" d="M0,0H150V150H0V0Z"/><polygon class="c" points="104.53 7.17 128 20.17 128 48.43 104.53 35.47 104.53 7.17"/><polygon class="c" points="126.19 51.24 102.92 64.09 102.64 63.93 79.59 51.23 102.85 38.37 126.19 51.24"/><path class="c" d="M49.3,93.67l-23.4-12.81,21.86-12.08,.11,.82c.72,5.13,2.76,11.5,6.63,20.62l.2,.47-5.41,2.97Z"/><path class="c" d="M50.96,126.96v-.36c.45-6.71,4.47-16.98,7.82-24.43l.51-1.12,1.41,3.05c4.14,8.95,11.85,25.64,13.28,34.5l.19,1.12-23.22-12.77Z"/><path class="c" d="M101.17,126.6v.36l-23.59,12.97-.11-.82c-1.31-9.32-7.97-24.34-14.98-39.14-11.65-24.69-11.59-31.15-11.55-36.78h0l-26.89,14.81v-28.17L101.18,7.2v28.24l-26.83,14.8v.3c-.07,3.49-.21,10.77,13.58,39.73,8.57,17.97,12.78,29.51,13.23,36.35h0Z"/><path class="c" d="M93.35,91.68l-.56,1.21-.53-1.2c-.49-1.12-1.25-2.78-2.17-4.76-4.01-8.72-10.72-23.31-11.94-31.56l-.17-1.12,23.18,12.75v.37c-.56,6.84-4.45,16.6-7.82,24.33h0Z"/></svg>